# File created by Blade
# Date/Time:  Wed Sep 24 19:53:44 2014
# Frame Rate: 120.000 fps
#------------------------------------------------------
:FULLY-SPECIFIED
:DEGREES
1948
root -6.211623 32.844308 -3.897137 10.149502 8.347074 -0.533502
Spine -15.892073 5.847429 -0.881165
Head -5.207999 -0.061833 16.236803
LeftShoulder -12.355728 13.439225 27.921103
LeftArm 63.436959 -85.702084 -80.373337
LeftForeArm -35.588129 -0.000000 110.631607
LeftHand -10.744656 0.000000 -2.953965
LeftHandThumb1 -26.253704 0.000000 33.147579
RightShoulder -19.319565 11.499138 -15.261339
RightArm -12.360419 -13.789324 78.995693
RightForeArm -22.256097 0.000000 20.077280
RightHand -7.325192 0.000000 9.466547
RightHandThumb1 -24.326973 -0.000000 -32.862282
LeftUpLeg -4.023913 5.451565 4.778716
LeftLeg -2.735188 -0.000000 0.000000
LeftFoot -7.947754 1.859890 -18.719059
LeftToeBase 11.467581 -0.000000 -0.000000
RightUpLeg -3.707035 -10.154590 -2.502961
RightLeg 1.118269 -0.000000 -0.000000
RightFoot -7.402038 -7.095955 -11.843651
RightToeBase -0.877538 -0.000000 0.000000
1949
root -6.212621 32.843957 -3.891135 10.092633 8.502633 -0.513897
Spine -15.863496 5.889372 -0.880644
Head -5.020905 -0.051333 16.090355
LeftShoulder -12.388586 13.358300 27.996913
LeftArm 64.044291 -85.810981 -81.068155
LeftForeArm -35.684241 -0.000000 110.647111
LeftHand -10.708894 -0.000000 -2.859497
LeftHandThumb1 -26.253704 0.000000 33.147579
RightShoulder -19.327180 11.562625 -15.279207
RightArm -12.366541 -13.826376 79.027012
RightForeArm -22.258182 0.000000 20.097181
RightHand -7.278106 -0.000000 9.592347
RightHandThumb1 -24.326973 -0.000000 -32.862282
LeftUpLeg -3.992112 5.360655 4.788621
LeftLeg -2.715302 -0.000000 0.000000
LeftFoot -7.923669 1.782304 -18.718713
LeftToeBase 11.475461 -0.000000 -0.000000
RightUpLeg -3.617157 -10.221917 -2.511391
RightLeg 1.129246 -0.000000 -0.000000
RightFoot -7.417371 -7.191304 -11.844111
RightToeBase -0.844840 -0.000000 0.000000
1950
root -6.213292 32.843918 -3.887268 10.047400 8.633303 -0.504980
Spine -15.845814 5.943980 -0.868670
Head -4.841792 0.010650 15.948905
LeftShoulder -12.403341 13.293474 28.061372
LeftArm 65.586585 -85.914395 -82.705582
LeftForeArm -35.712317 -0.000000 110.661165
LeftHand -10.732380 -0.000000 -2.889480
LeftHandThumb1 -26.253704 0.000000 33.147579
RightShoulder -19.356753 11.580124 -15.278322
RightArm -12.307099 -13.862593 79.023899
RightForeArm -22.311007 -0.000000 20.151250
RightHand -7.347871 -0.000000 9.509310
RightHandThumb1 -24.326973 -0.000000 -32.862282
LeftUpLeg -3.971979 5.305543 4.802651
LeftLeg -2.698060 -0.000000 0.000000
LeftFoot -7.894460 1.700680 -18.697160
LeftToeBase 11.468192 -0.000000 -0.000000
RightUpLeg -3.558366 -10.367650 -2.501006
RightLeg 1.153519 -0.000000 -0.000000
RightFoot -7.433310 -7.205349 -11.870108
RightToeBase -0.879421 -0.000000 0.000000
1951
root -6.212467 32.844179 -3.884833 10.014854 8.775523 -0.484359
Spine -15.840458 5.970587 -0.855763
Head -4.670647 0.059943 15.801620
LeftShoulder -12.417421 13.274192 28.113090
LeftArm 67.233668 -85.992089 -84.450411
LeftForeArm -35.634120 -0.000000 110.692985
LeftHand -10.815261 -0.000000 -2.673111
LeftHandThumb1 -26.253704 0.000000 33.147579
RightShoulder -19.379940 11.624488 -15.259354
RightArm -12.242754 -13.971472 78.979561
RightForeArm -22.294038 -0.000000 20.177560
RightHand -7.443665 0.000000 9.514442
RightHandThumb1 -24.326973 -0.000000 -32.862282
LeftUpLeg -3.972891 5.244358 4.800432
LeftLeg -2.668421 -0.000000 0.000000
LeftFoot -7.869647 1.621872 -18.668181
LeftToeBase 11.446674 -0.000000 -0.000000
RightUpLeg -3.522520 -10.480817 -2.506686
RightLeg 1.207589 -0.000000 -0.000000
RightFoot -7.470312 -7.262263 -11.879000
RightToeBase -0.825369 -0.000000 0.000000
1952
root -6.215188 32.844034 -3.884668 9.982450 8.909643 -0.461488
Spine -15.823171 5.999066 -0.852572
Head -4.539461 0.127137 15.662559
LeftShoulder -12.416423 13.320681 28.151031
LeftArm 70.569619 -86.059216 -87.896641
LeftForeArm -35.640976 -0.000000 110.685351
LeftHand -10.771261 -0.000000 -2.658403
LeftHandThumb1 -26.253704 0.000000 33.147579
RightShoulder -19.369785 11.671695 -15.289456
RightArm -12.273123 -13.817109 79.022039
RightForeArm -22.448757 -0.000000 20.293409
RightHand -7.387323 -0.000000 9.378924
RightHandThumb1 -24.326973 -0.000000 -32.862282
LeftUpLeg -3.978369 5.170741 4.802924
LeftLeg -2.634342 -0.000000 0.000000
LeftFoot -7.849827 1.545415 -18.666210
LeftToeBase 11.497963 -0.000000 -0.000000
RightUpLeg -3.469392 -10.486784 -2.516761
RightLeg 1.220384 -0.000000 -0.000000
RightFoot -7.473001 -7.393046 -11.851212
RightToeBase -0.802321 -0.000000 0.000000
1953
root -6.211948 32.843701 -3.883697 9.952609 9.034218 -0.431584
Spine -15.816688 6.021339 -0.826946
Head -4.386473 0.231787 15.471006
LeftShoulder -12.432278 13.368824 28.143872
LeftArm 73.363273 -86.075115 -90.779374
LeftForeArm -35.708872 -0.000000 110.678242
LeftHand -10.771546 0.000000 -2.686838
LeftHandThumb1 -26.253704 0.000000 33.147579
RightShoulder -19.372436 11.682067 -15.310813
RightArm -12.227731 -13.847650 79.017152
RightForeArm -22.456156 -0.000000 20.397428
RightHand -7.468955 -0.000000 9.307283
RightHandThumb1 -24.326973 -0.000000 -32.862282
LeftUpLeg -3.976193 5.115446 4.784643
LeftLeg -2.614583 -0.000000 0.000000
LeftFoot -7.823288 1.484075 -18.651958
LeftToeBase 11.488020 -0.000000 -0.000000
RightUpLeg -3.422785 -10.493410 -2.544066
RightLeg 1.246782 -0.000000 -0.000000
RightFoot -7.485614 -7.527455 -11.831876
RightToeBase -0.766220 -0.000000 0.000000
1954
root -6.213292 32.843296 -3.880450 9.911551 9.162529 -0.430503
Spine -15.807994 6.050825 -0.783673
Head -4.244859 0.349865 15.304869
LeftShoulder -12.430591 13.338411 28.155363
LeftArm 74.990627 -86.042632 -92.487495
LeftForeArm -35.709700 0.000000 110.673345
LeftHand -10.803091 -0.000000 -2.690506
LeftHandThumb1 -26.253704 0.000000 33.147579
RightShoulder -19.391433 11.694002 -15.301111
RightArm -12.184596 -13.842143 78.972554
RightForeArm -22.481763 -0.000000 20.541554
RightHand -7.656358 0.000000 9.269256
RightHandThumb1 -24.326973 -0.000000 -32.862282
LeftUpLeg -3.960227 5.043236 4.808729
LeftLeg -2.603399 -0.000000 0.000000
LeftFoot -7.802116 1.409040 -18.688531
LeftToeBase 11.468371 -0.000000 -0.000000
RightUpLeg -3.359123 -10.509017 -2.535220
RightLeg 1.258370 -0.000000 -0.000000
RightFoot -7.489482 -7.637552 -11.799369
RightToeBase -0.735043 -0.000000 0.000000
1955
root -6.212613 32.843589 -3.876744 9.871554 9.278021 -0.427106
Spine -15.803500 6.080938 -0.736471
Head -4.108272 0.454588 15.150494
LeftShoulder -12.402976 13.200270 28.221748
LeftArm 74.806411 -86.014823 -92.456071
LeftForeArm -35.942179 -0.000000 110.686266
LeftHand -10.826485 -0.000000 -2.691775
LeftHandThumb1 -26.253704 0.000000 33.147579
RightShoulder -19.410035 11.674645 -15.298733
RightArm -12.129779 -13.856763 78.935271
RightForeArm -22.541485 -0.000000 20.683155
RightHand -7.673328 -0.000000 9.189297
RightHandThumb1 -24.326973 -0.000000 -32.862282
LeftUpLeg -3.940323 4.986074 4.822931
LeftLeg -2.593243 -0.000000 0.000000
LeftFoot -7.782510 1.356463 -18.614698
LeftToeBase 11.448908 -0.000000 -0.000000
RightUpLeg -3.349295 -10.662156 -2.520142
RightLeg 1.372736 -0.000000 -0.000000
RightFoot -7.547608 -7.651184 -11.807331
RightToeBase -0.752546 -0.000000 0.000000
1956
root -6.211132 32.843046 -3.874076 9.827881 9.379007 -0.416200
Spine -15.782984 6.098088 -0.693227
Head -3.995258 0.561063 15.047931
LeftShoulder -12.415377 13.217139 28.211923
LeftArm 76.251192 -85.955951 -93.996583
LeftForeArm -36.126000 -0.000000 110.683620
LeftHand -10.772900 0.000000 -2.709249
LeftHandThumb1 -26.253704 0.000000 33.147579
RightShoulder -19.416826 11.670917 -15.308596
RightArm -12.057226 -13.880184 78.909618
RightForeArm -22.561961 0.000000 20.772088
RightHand -7.711073 -0.000000 9.039423
RightHandThumb1 -24.326973 -0.000000 -32.862282
LeftUpLeg -3.913307 4.923973 4.827725
LeftLeg -2.580988 -0.000000 0.000000
LeftFoot -7.761621 1.308641 -18.605454
LeftToeBase 11.449491 -0.000000 -0.000000
RightUpLeg -3.283370 -10.705790 -2.526580
RightLeg 1.375247 -0.000000 -0.000000
RightFoot -7.555580 -7.735713 -11.822208
RightToeBase -0.674465 -0.000000 0.000000
1957
root -6.209883 32.842181 -3.872294 9.787176 9.477340 -0.403314
Spine -15.756248 6.108578 -0.650102
Head -3.897288 0.684095 14.940910
LeftShoulder -12.444147 13.295195 28.174965
LeftArm 78.376133 -85.878029 -96.200248
LeftForeArm -36.382797 -0.000000 110.675418
LeftHand -10.807000 -0.000000 -2.653670
LeftHandThumb1 -26.253704 0.000000 33.147579
RightShoulder -19.405091 11.717691 -15.328436
RightArm -12.061272 -13.831467 78.880593
RightForeArm -22.614647 0.000000 20.902061
RightHand -7.650411 -0.000000 9.029567
RightHandThumb1 -24.326973 -0.000000 -32.862282
LeftUpLeg -3.889705 4.858280 4.828954
LeftLeg -2.572330 -0.000000 0.000000
LeftFoot -7.751058 1.273022 -18.572604
LeftToeBase 11.398890 -0.000000 -0.000000
RightUpLeg -3.217053 -10.759720 -2.534531
RightLeg 1.369536 -0.000000 -0.000000
RightFoot -7.564714 -7.797375 -11.817067
RightToeBase -0.630376 -0.000000 0.000000
1958
root -6.206643 32.840720 -3.871921 9.755102 9.573197 -0.366681
Spine -15.735650 6.114718 -0.644453
Head -3.795537 0.817236 14.872133
LeftShoulder -12.452609 13.241434 28.171850
LeftArm 78.816581 -85.788128 -96.708866
LeftForeArm -36.504190 -0.000000 110.668057
LeftHand -10.811100 -0.000000 -2.600862
LeftHandThumb1 -26.253704 0.000000 33.147579
RightShoulder -19.408739 11.737995 -15.330768
RightArm -12.045191 -13.789030 78.842834
RightForeArm -22.702928 -0.000000 21.062896
RightHand -7.825360 -0.000000 8.966854
RightHandThumb1 -24.326973 -0.000000 -32.862282
LeftUpLeg -3.872439 4.761048 4.804935
LeftLeg -2.563256 -0.000000 0.000000
LeftFoot -7.760012 1.269010 -18.562587
LeftToeBase 11.445474 -0.000000 -0.000000
RightUpLeg -3.128433 -10.754893 -2.571933
RightLeg 1.305805 -0.000000 -0.000000
RightFoot -7.542723 -7.912086 -11.830861
RightToeBase -0.601198 -0.000000 0.000000
1959
root -6.204653 32.839643 -3.870417 9.723139 9.662489 -0.345751
Spine -15.723265 6.107627 -0.612158
Head -3.697498 0.940461 14.786286
LeftShoulder -12.459506 13.189828 28.153173
LeftArm 78.588130 -85.722355 -96.543857
LeftForeArm -36.579561 -0.000000 110.662464
LeftHand -10.786020 -0.000000 -2.526657
LeftHandThumb1 -26.253704 0.000000 33.147579
RightShoulder -19.406720 11.737556 -15.350927
RightArm -12.004403 -13.775858 78.824187
RightForeArm -22.752081 -0.000000 21.175301
RightHand -7.703817 -0.000000 9.011335
RightHandThumb1 -24.326973 -0.000000 -32.862282
LeftUpLeg -3.853634 4.662862 4.798273
LeftLeg -2.555515 -0.000000 0.000000
LeftFoot -7.759055 1.267262 -18.565758
LeftToeBase 11.463580 -0.000000 -0.000000
RightUpLeg -3.061675 -10.824002 -2.588303
RightLeg 1.273822 -0.000000 -0.000000
RightFoot -7.523332 -7.983740 -11.877277
RightToeBase -0.645405 -0.000000 0.000000
1960
root -6.204420 32.839002 -3.869815 9.695244 9.731942 -0.333913
Spine -15.713100 6.125941 -0.579397
Head -3.623451 1.034530 14.707044
LeftShoulder -12.467409 13.208903 28.091023
LeftArm 79.643203 -85.634383 -97.618440
LeftForeArm -36.633378 -0.000000 110.660575
LeftHand -10.867624 0.000000 -2.377695
LeftHandThumb1 -26.253704 0.000000 33.147579
RightShoulder -19.423256 11.760572 -15.374739
RightArm -11.982417 -13.812259 78.805648
RightForeArm -22.727132 0.000000 21.286283
RightHand -7.752922 -0.000000 8.961012
RightHandThumb1 -24.326973 -0.000000 -32.862282
LeftUpLeg -3.840490 4.588971 4.801584
LeftLeg -2.546171 -0.000000 0.000000
LeftFoot -7.757325 1.259083 -18.586698
LeftToeBase 11.440347 -0.000000 -0.000000
RightUpLeg -3.018852 -10.897026 -2.593626
RightLeg 1.274016 -0.000000 -0.000000
RightFoot -7.527027 -8.018988 -11.906597
RightToeBase -0.695937 -0.000000 0.000000
